<svg xmlns="http://www.w3.org/2000/svg" width="164" height="92" viewBox="0 0 164 92">
<g>
<path d="M 147.51 82.78 L 142.83 89.00 L 21.02 89.00 L 12.14 75.50 L 13.61 67.19 L 15.08 58.87 L 12.22 53.69 C10.64,50.83 7.72,45.57 5.72,41.99 C3.72,38.41 2.40,35.00 2.79,34.40 C3.35,33.55 59.24,11.23 78.52,4.16 L 82.54 2.68 L 106.52 11.99 C119.71,17.11 136.65,23.67 144.16,26.57 C159.88,32.63 162.00,33.65 162.00,35.19 C162.00,35.81 159.24,41.26 155.87,47.31 C149.25,59.19 149.23,59.30 151.58,73.03 C152.12,76.12 151.62,77.31 147.51,82.78 ZM 21.33 83.75 L 23.35 86.00 L 141.62 86.00 L 145.06 81.25 C146.95,78.64 148.65,76.16 148.83,75.75 C149.02,75.34 146.77,74.92 143.83,74.82 L 138.50 74.63 L 143.75 74.26 C146.64,74.06 148.99,73.58 148.98,73.20 C148.97,72.81 148.31,68.90 147.51,64.50 C146.71,60.10 145.34,52.45 144.46,47.50 C143.59,42.55 142.45,38.07 141.93,37.55 C139.95,35.53 141.25,35.00 148.25,34.97 C148.70,34.97 149.13,34.97 149.54,34.97 C152.16,34.97 153.91,34.96 154.01,34.55 C154.22,33.71 147.58,31.15 127.41,23.39 C125.86,22.79 124.22,22.16 122.50,21.50 C114.25,18.32 102.32,13.70 96.00,11.22 C89.68,8.74 83.60,6.66 82.50,6.58 C80.10,6.42 79.14,6.78 36.50,23.51 C33.20,24.80 26.23,27.51 21.00,29.52 C15.77,31.53 11.07,33.58 10.55,34.09 C9.97,34.64 12.27,35.00 16.42,35.00 C22.27,35.00 23.07,35.21 22.04,36.45 C20.80,37.95 16.04,65.01 16.02,70.75 C16.00,74.00 16.00,74.00 21.17,74.00 C27.52,74.00 27.13,74.90 20.68,75.15 C18.11,75.24 16.00,75.60 16.00,75.94 C16.00,76.79 18.90,81.04 21.33,83.75 ZM 139.29 31.74 C137.70,32.27 31.63,32.52 27.56,32.00 L 23.62 31.50 L 29.06 29.37 C32.05,28.19 38.10,25.84 42.50,24.13 C46.90,22.42 57.39,18.32 65.82,15.01 C74.24,11.71 81.57,9.00 82.10,9.00 C84.25,9.00 140.46,31.35 139.29,31.74 ZM 141.93 81.10 L 139.86 84.00 L 24.14 84.00 L 22.07 81.10 C20.93,79.50 20.00,77.92 20.00,77.60 C20.00,77.27 47.90,77.00 82.00,77.00 C116.10,77.00 144.00,77.27 144.00,77.60 C144.00,77.92 143.07,79.50 141.93,81.10 ZM 55.02 22.25 C55.00,23.17 108.40,23.26 109.32,22.34 C109.68,21.98 103.84,19.27 96.34,16.31 L 82.69 10.93 L 68.86 16.22 C61.26,19.12 55.03,21.84 55.02,22.25 ZM 98.98 28.43 L 99.95 31.00 L 113.81 31.00 C121.43,31.00 127.98,30.69 128.37,30.30 C128.75,29.92 126.01,28.36 122.28,26.85 C116.74,24.61 113.90,24.10 106.75,24.05 C101.94,24.02 98.00,24.42 98.00,24.93 C98.00,25.45 98.44,27.02 98.98,28.43 ZM 35.00 30.24 C35.00,30.66 41.74,31.00 49.97,31.00 L 64.94 31.00 L 66.63 24.50 L 59.07 24.19 C52.88,23.95 49.99,24.40 43.25,26.68 C38.71,28.22 35.00,29.82 35.00,30.24 ZM 75.81 29.85 C80.10,31.06 83.00,30.62 83.00,28.75 C83.00,27.79 83.45,27.00 84.00,27.00 C84.55,27.00 85.00,26.30 85.00,25.45 C85.00,24.13 83.64,23.94 76.33,24.20 C70.35,24.41 67.53,24.90 67.23,25.79 C66.92,26.73 67.52,26.91 69.37,26.44 C71.09,26.01 72.47,26.33 73.54,27.40 C74.42,28.28 74.77,29.04 74.32,29.10 C73.87,29.15 74.54,29.49 75.81,29.85 ZM 79.73 16.30 C81.13,17.70 81.13,18.01 79.76,19.38 C78.39,20.75 78.07,20.74 76.71,19.21 C75.36,17.69 75.36,17.35 76.68,16.13 C77.96,14.96 78.41,14.98 79.73,16.30 Z" fill="rgb(9,30,73)"/>
<path d="M 21.33 83.75 C18.90,81.04 16.00,76.79 16.00,75.94 C16.00,75.60 18.11,75.24 20.68,75.15 C27.13,74.90 27.52,74.00 21.17,74.00 C16.00,74.00 16.00,74.00 16.02,70.75 C16.04,65.01 20.80,37.95 22.04,36.45 C23.07,35.21 22.27,35.00 16.42,35.00 C12.27,35.00 9.97,34.64 10.55,34.09 C11.07,33.58 15.77,31.53 21.00,29.52 C26.23,27.51 33.20,24.80 36.50,23.51 C79.14,6.78 80.10,6.42 82.50,6.58 C83.60,6.66 89.68,8.74 96.00,11.22 C102.32,13.70 114.25,18.32 122.50,21.50 C124.22,22.16 125.86,22.79 127.41,23.39 L 127.41 23.39 C147.58,31.15 154.22,33.71 154.01,34.55 C153.91,34.96 152.16,34.97 149.54,34.97 C149.13,34.97 148.70,34.97 148.25,34.97 C141.25,35.00 139.95,35.53 141.93,37.55 C142.45,38.07 143.59,42.55 144.46,47.50 C145.34,52.45 146.71,60.10 147.51,64.50 C148.31,68.90 148.97,72.81 148.98,73.20 C148.99,73.58 146.64,74.06 143.75,74.26 L 138.50 74.63 L 143.83 74.82 C146.77,74.92 149.02,75.34 148.83,75.75 C148.65,76.16 146.95,78.64 145.06,81.25 L 141.62 86.00 L 23.35 86.00 ZM 139.29 31.74 C140.46,31.35 84.25,9.00 82.10,9.00 C81.57,9.00 74.24,11.71 65.82,15.01 C57.39,18.32 46.90,22.42 42.50,24.13 C38.10,25.84 32.05,28.19 29.06,29.37 L 23.62 31.50 L 27.56 32.00 C31.63,32.52 137.70,32.27 139.29,31.74 ZM 55.11 69.61 C57.13,71.77 58.18,72.00 65.99,72.00 C74.24,72.00 74.75,71.87 77.43,69.07 L 80.24 66.14 L 79.81 53.93 C79.27,38.53 78.83,38.00 66.56,38.00 C54.98,38.00 54.46,38.67 53.56,54.86 C52.89,66.77 52.95,67.32 55.11,69.61 ZM 141.93 81.10 C143.07,79.50 144.00,77.92 144.00,77.60 C144.00,77.27 116.10,77.00 82.00,77.00 C47.90,77.00 20.00,77.27 20.00,77.60 C20.00,77.92 20.93,79.50 22.07,81.10 L 24.14 84.00 L 139.86 84.00 ZM 31.01 71.21 L 39.50 71.50 L 44.10 67.72 L 48.71 63.94 L 50.05 45.50 L 46.06 41.75 C42.20,38.11 41.86,38.00 34.66,38.00 C29.92,38.00 26.89,38.45 26.26,39.25 C24.94,40.94 20.82,69.22 21.76,70.16 C22.17,70.57 26.33,71.04 31.01,71.21 ZM 120.76 68.52 C123.65,71.07 129.95,71.73 138.25,70.36 C142.48,69.66 142.51,69.56 140.90,60.33 L 139.79 54.00 L 133.40 54.00 C129.88,54.00 127.00,54.20 127.00,54.45 C127.00,56.37 129.65,60.00 131.05,60.00 C132.83,60.00 134.34,62.33 133.26,63.40 C132.13,64.54 127.80,63.99 125.03,62.36 C122.67,60.96 122.16,59.88 121.67,55.13 C121.23,50.81 121.46,49.15 122.70,47.77 C124.72,45.55 131.00,45.32 131.00,47.48 C131.00,49.16 135.20,50.52 137.58,49.61 C138.78,49.15 139.00,48.23 138.48,45.75 C137.11,39.17 135.88,38.29 127.80,38.11 C120.52,37.94 120.44,37.96 116.70,41.79 L 112.94 45.65 L 114.01 55.05 C114.73,61.41 115.55,64.73 116.54,65.28 C117.35,65.74 119.25,67.19 120.76,68.52 ZM 86.87 69.64 C89.26,71.77 90.30,71.96 98.40,71.74 C106.62,71.52 107.42,71.31 109.04,69.00 C110.65,66.69 110.69,65.46 109.47,52.50 C108.76,44.80 108.13,38.36 108.08,38.19 C108.04,38.01 106.54,38.01 104.75,38.19 C103.68,38.29 102.93,38.31 102.42,38.68 C101.23,39.55 101.42,42.34 102.15,52.65 C102.19,53.18 102.23,53.73 102.27,54.30 L 102.95 64.10 L 91.50 63.50 L 91.22 50.69 L 90.94 37.88 L 87.22 38.19 L 83.50 38.50 L 83.87 52.90 C84.22,66.98 84.29,67.35 86.87,69.64 ZM 72.00 46.00 L 72.00 64.00 L 61.00 64.00 L 61.00 46.00 ZM 38.71 62.49 C37.52,63.32 35.03,64.00 33.18,64.00 L 29.80 64.00 L 30.47 56.75 C31.43,46.39 31.61,46.00 35.41,46.00 C40.60,46.00 42.39,48.75 41.55,55.45 C41.05,59.47 40.27,61.40 38.71,62.49 Z" fill="rgb(48,74,142)"/>
<path d="M 0.00 16.65 C0.00,32.42 0.09,33.23 1.75,31.82 C2.71,31.00 7.32,28.87 12.00,27.09 C16.67,25.31 23.88,22.54 28.00,20.95 C69.78,4.78 79.90,1.00 81.46,1.00 C82.58,1.00 88.36,3.12 102.00,8.53 C103.93,9.30 118.10,14.72 133.50,20.59 C148.90,26.46 162.06,31.70 162.75,32.25 C163.74,33.04 164.00,29.78 164.00,16.62 L 164.00 92.00 L 0.00 92.00 L 0.00 16.65 ZM 147.51 82.78 C151.62,77.31 152.12,76.12 151.58,73.03 C149.23,59.30 149.25,59.19 155.87,47.31 C159.24,41.26 162.00,35.81 162.00,35.19 C162.00,33.65 159.88,32.63 144.16,26.57 C136.65,23.67 119.71,17.11 106.52,11.99 L 82.54 2.68 L 78.52 4.16 C59.24,11.23 3.35,33.55 2.79,34.40 C2.40,35.00 3.72,38.41 5.72,41.99 C7.72,45.57 10.64,50.83 12.22,53.69 L 15.08 58.87 L 13.61 67.19 L 12.14 75.50 L 21.02 89.00 L 142.83 89.00 ZM 82.17 91.01 L 21.50 91.52 L 92.75 91.76 L 164.00 92.00 L 163.94 63.75 C163.90,48.14 163.51,36.40 163.06,37.51 C162.61,38.61 159.67,43.79 156.52,49.01 L 150.80 58.50 L 152.48 65.74 C154.64,75.03 153.97,77.77 147.83,84.79 L 142.84 90.50 ZM 0.04 64.25 L 0.00 92.00 L 10.75 91.98 C16.66,91.98 21.05,91.64 20.49,91.23 C18.94,90.10 14.49,83.87 12.57,80.16 C11.13,77.34 10.96,75.26 11.55,66.99 L 12.25 57.17 L 7.73 49.83 C5.25,45.80 2.51,41.15 1.65,39.50 C0.19,36.71 0.08,38.41 0.04,64.25 ZM 75.81 29.85 C74.54,29.49 73.87,29.15 74.32,29.10 C74.77,29.04 74.42,28.28 73.54,27.40 C72.47,26.33 71.09,26.01 69.37,26.44 C67.52,26.91 66.92,26.73 67.23,25.79 C67.53,24.90 70.35,24.41 76.33,24.20 C83.64,23.94 85.00,24.13 85.00,25.45 C85.00,26.30 84.55,27.00 84.00,27.00 C83.45,27.00 83.00,27.79 83.00,28.75 C83.00,30.62 80.10,31.06 75.81,29.85 Z" fill="rgb(115,152,176)"/>
<path d="M 0.04 64.25 C0.08,38.41 0.19,36.71 1.65,39.50 C2.51,41.15 5.25,45.80 7.73,49.83 L 12.25 57.17 L 11.55 66.99 C10.96,75.26 11.13,77.34 12.57,80.16 C14.49,83.87 18.94,90.10 20.49,91.23 C21.05,91.64 16.66,91.98 10.75,91.98 L 0.00 92.00 L 0.04 64.25 ZM 82.17 91.01 L 142.84 90.50 L 147.83 84.79 C153.97,77.77 154.64,75.03 152.48,65.74 L 150.80 58.50 L 156.52 49.01 C159.67,43.79 162.61,38.61 163.06,37.51 C163.51,36.40 163.90,48.14 163.94,63.75 L 164.00 92.00 L 92.75 91.76 L 21.50 91.52 L 82.17 91.01 ZM 31.01 71.21 C26.33,71.04 22.17,70.57 21.76,70.16 C20.82,69.22 24.94,40.94 26.26,39.25 C26.89,38.45 29.92,38.00 34.66,38.00 C41.86,38.00 42.20,38.11 46.06,41.75 L 50.05 45.50 L 49.38 54.72 L 48.71 63.94 L 44.10 67.72 L 39.50 71.50 L 31.01 71.21 ZM 38.71 62.49 C40.27,61.40 41.05,59.47 41.55,55.45 C42.39,48.75 40.60,46.00 35.41,46.00 C31.61,46.00 31.43,46.39 30.47,56.75 L 29.80 64.00 L 33.18 64.00 C35.03,64.00 37.52,63.32 38.71,62.49 ZM 55.11 69.61 C52.95,67.32 52.89,66.77 53.56,54.86 C54.46,38.67 54.98,38.00 66.56,38.00 C78.83,38.00 79.27,38.53 79.81,53.93 L 80.24 66.14 L 77.43 69.07 C74.75,71.87 74.24,72.00 65.99,72.00 C58.18,72.00 57.13,71.77 55.11,69.61 ZM 72.00 55.00 L 72.00 46.00 L 66.50 46.00 L 61.00 46.00 L 61.00 55.00 L 61.00 64.00 L 66.50 64.00 L 72.00 64.00 L 72.00 55.00 ZM 86.87 69.64 C84.29,67.35 84.22,66.98 83.87,52.90 L 83.50 38.50 L 87.22 38.19 L 90.94 37.88 L 91.22 50.69 L 91.50 63.50 L 97.23 63.80 L 102.95 64.10 L 102.27 54.30 C101.12,37.94 101.02,38.55 104.75,38.19 C106.54,38.01 108.04,38.01 108.08,38.19 C108.13,38.36 108.76,44.80 109.47,52.50 C110.69,65.46 110.65,66.69 109.04,69.00 C107.42,71.31 106.62,71.52 98.40,71.74 C90.30,71.96 89.26,71.77 86.87,69.64 ZM 120.76 68.52 C119.25,67.19 117.35,65.74 116.54,65.28 C115.55,64.73 114.73,61.41 114.01,55.05 L 112.94 45.65 L 116.70 41.79 C120.44,37.96 120.52,37.94 127.80,38.11 C135.88,38.29 137.11,39.17 138.48,45.75 C139.00,48.23 138.78,49.15 137.58,49.61 C135.20,50.52 131.00,49.16 131.00,47.48 C131.00,45.32 124.72,45.55 122.70,47.77 C121.46,49.15 121.23,50.81 121.67,55.13 C122.16,59.88 122.67,60.96 125.03,62.36 C127.80,63.99 132.13,64.54 133.26,63.40 C134.34,62.33 132.83,60.00 131.05,60.00 C129.65,60.00 127.00,56.37 127.00,54.45 C127.00,54.20 129.88,54.00 133.40,54.00 L 139.79 54.00 L 140.90 60.33 C142.51,69.56 142.48,69.66 138.25,70.36 C129.95,71.73 123.65,71.07 120.76,68.52 ZM 0.00 16.65 L 0.00 0.00 L 82.00 0.00 L 164.00 0.00 L 164.00 16.62 C164.00,29.78 163.74,33.04 162.75,32.25 C162.06,31.70 148.90,26.46 133.50,20.59 C118.10,14.72 103.93,9.30 102.00,8.53 C88.36,3.12 82.58,1.00 81.46,1.00 C79.90,1.00 69.78,4.78 28.00,20.95 C23.88,22.54 16.67,25.31 12.00,27.09 C7.32,28.87 2.71,31.00 1.75,31.82 C0.09,33.23 0.00,32.42 0.00,16.65 ZM 35.00 30.24 C35.00,29.82 38.71,28.22 43.25,26.68 C49.99,24.40 52.88,23.95 59.07,24.19 L 66.63 24.50 L 65.79 27.75 L 64.94 31.00 L 49.97 31.00 C41.74,31.00 35.00,30.66 35.00,30.24 ZM 98.98 28.43 C98.44,27.02 98.00,25.45 98.00,24.93 C98.00,24.42 101.94,24.02 106.75,24.05 C113.90,24.10 116.74,24.61 122.28,26.85 C126.01,28.36 128.75,29.92 128.37,30.30 C127.98,30.69 121.43,31.00 113.81,31.00 L 99.95 31.00 L 98.98 28.43 ZM 55.02 22.25 C55.03,21.84 61.26,19.12 68.86,16.22 L 82.69 10.93 L 96.34 16.31 C103.84,19.27 109.68,21.98 109.32,22.34 C108.40,23.26 55.00,23.17 55.02,22.25 ZM 79.73 16.30 C78.41,14.98 77.96,14.96 76.68,16.13 C75.36,17.35 75.36,17.69 76.71,19.21 C78.07,20.74 78.39,20.75 79.76,19.38 C81.13,18.01 81.13,17.70 79.73,16.30 Z" fill="rgb(239,244,247)"/>
</g>
</svg>